<svg width="278" height="320" viewBox="0 0 278 320" fill="none" xmlns="http://www.w3.org/2000/svg">
<g opacity="0.03">
<path d="M-14.3576 203.007C-10.8884 206.828 -6.18506 210.347 -1.19411 209.05C0.870117 209.485 2.94383 208.545 4.52159 207.159C11.5694 211.258 18.8243 213.061 26.4686 213.061C32.0663 213.061 37.6495 211.996 42.8609 209.93C45.3314 230.625 55.8279 266.683 59.2963 274.158C61.7032 283.432 75.3713 287.971 84.6366 287.665C96.6756 287.268 112.117 284.797 120.048 275.661C122.268 273.104 123.29 269.181 121.542 266.281C119.659 263.159 115.383 262.485 111.827 263.567C112.276 256.882 109.258 249.831 103.488 246.204C107.974 237.407 105.293 225.583 97.4534 219.58C99.9404 213.985 98.9809 206.583 94.025 201.825C136.472 201.129 163.525 220.772 167.608 222.475C176.451 235.155 189.421 232.452 195.024 221.952C197.359 217.578 198.212 212.573 198.833 207.647C205.611 153.864 188.999 101.044 165.439 51.9948C162.267 45.3916 158.677 38.5145 152.473 34.6708C148.386 32.1387 140.932 31.1437 136.637 34.2893C132.427 35.6838 130.044 37.3243 127.928 41.7997C96.4094 77.0057 61.0027 103.905 22.6672 121.738C13.3248 126.039 3.79585 130.14 -3.62989 137.121C-11.8723 144.868 -16.7322 155.839 -17.3301 167.078C-17.6135 167.149 -17.9008 167.202 -18.1676 167.354C-25.0768 171.269 -26.742 180.148 -24.8114 186.894C-23.0306 193.108 -19.0237 197.868 -14.3576 203.007ZM163.276 158.388C156.957 161.568 150.949 164.705 145.681 170.091C137.926 151.634 132.698 132.535 130.154 113.544C137.959 114.289 143.726 113.296 152.292 111.517C149.172 124.502 154.615 149.435 163.276 158.388ZM171.852 161.279C187.112 155.868 173.141 95.4916 157.146 103.83C144.999 106.207 140.068 107.842 129.348 106.938C127.834 91.9613 127.997 77.113 129.975 62.7803C130.556 58.3171 132.19 43.5195 136.242 41.5624C137.749 40.8368 139.059 40.2033 140.467 40.2033C146.841 40.2033 154.986 56.624 158.074 62.958C187.931 119.745 194.372 182.414 188.853 206.492C186.37 217.322 183.862 223.262 181.405 224.144C179.427 224.865 175.617 222.485 173.241 219.06C163.304 204.776 155.937 192.777 148.589 176.687C156.187 167.586 168.695 163.656 171.852 161.279ZM124.393 55.2118C115.864 110.131 130.057 165.315 159.662 210.625C134.578 197.966 108.515 193.208 80.4243 196.059C63.2047 175.572 56.4827 146.955 59.9042 108.673C82.722 94.1601 104.294 76.2943 124.393 55.2118ZM52.9559 113.045C50.3553 151.086 57.8879 179.894 75.9145 200.931C76.502 202.159 77.7803 202.96 79.2171 202.776C80.1851 202.666 81.1387 202.594 82.0997 202.502C82.3014 202.904 82.5776 203.276 82.95 203.579C86.6186 206.565 88.4337 211.868 87.3678 216.473C85.8486 222.348 86.1746 224.197 90.6469 228.39C95.2488 232.883 96.1392 240.929 92.6332 246.325C91.5359 248.015 92.1983 250.314 94.0758 251.13C100.385 253.879 100.132 259.226 100.591 260.458C101.783 266.277 101.719 269.162 95.9166 272.532C90.9251 275.426 86.6486 276.532 80.5099 277.562C75.3943 278.425 71.9568 278.035 69.3584 276.306C65.2128 273.551 64.6004 269.591 62.7188 264.364C59.3251 254.884 50.8334 225.048 48.9656 205.153C49.0468 203.411 47.9909 202.255 46.6751 201.862C44.7719 201.244 44.4404 202.273 40.2892 203.901C40.2464 203.869 40.2247 203.821 40.18 203.791C17.0807 188.161 5.13723 159.762 11.1475 134.73C11.1547 134.701 11.1446 134.672 11.1507 134.642C22.0571 128.564 29.905 126.863 52.9559 113.045ZM0.873528 141.911C1.72006 141.116 2.68164 140.441 3.59854 139.718C0.483438 163.965 11.5635 189.87 32.1436 206.044C10.7013 209.243 -7.67129 194.284 -10.5263 174.516C-12.2472 162.633 -7.88075 150.139 0.873528 141.911Z" fill="white"/>
<path d="M209.166 110.608L246.657 80.0641C248.066 78.9169 248.275 76.8471 247.128 75.4387C245.985 74.0282 243.909 73.8206 242.505 74.9657L205.013 105.509C203.605 106.657 203.395 108.729 204.542 110.135C205.683 111.543 207.764 111.753 209.166 110.608Z" fill="white"/>
<path d="M258.271 137.046C257.831 137.046 216.398 137.121 216.837 137.138C215.022 137.142 213.643 138.617 213.647 140.432C213.652 142.245 215.21 143.714 217.025 143.714C217.699 143.712 258.718 143.621 258.279 143.621C260.094 143.617 261.563 142.142 261.558 140.325C261.554 138.512 260.082 137.046 258.271 137.046Z" fill="white"/>
<path d="M251.088 187.449L218.631 177.864C216.88 177.344 215.06 178.348 214.542 180.086C214.029 181.828 215.026 183.656 216.764 184.169L249.23 193.754C250.931 194.262 252.789 193.302 253.314 191.532C253.828 189.79 252.83 187.962 251.088 187.449Z" fill="white"/>
</g>
</svg>
