<svg width="89" height="88" viewBox="0 0 89 88" fill="none" xmlns="http://www.w3.org/2000/svg">
<g clip-path="url(#clip0_268_121)">
<path d="M79.6992 58.6619H70.8993C68.582 58.6683 66.4053 59.7736 65.0327 61.6406C63.6601 59.7736 61.4834 58.6683 59.1661 58.6619H50.3662C48.0489 58.6683 45.8722 59.7736 44.4996 61.6406C43.127 59.7736 40.9503 58.6683 38.633 58.6619H29.8331C27.5158 58.6683 25.3391 59.7736 23.9665 61.6406C22.5939 59.7736 20.4172 58.6683 18.0999 58.6619H9.30004C5.25209 58.6666 1.97156 61.9472 1.9668 65.9951V87.9948H4.90009V77.7283C4.90009 75.2982 6.86999 73.3283 9.30004 73.3283H18.0999C20.53 73.3283 22.4999 75.2982 22.4999 77.7283V87.9948H25.4332V77.7283C25.4332 75.2982 27.4031 73.3283 29.8331 73.3283H38.633C41.0631 73.3283 43.0329 75.2982 43.0329 77.7283V87.9948H45.9662V77.7283C45.9662 75.2982 47.9361 73.3283 50.3662 73.3283H59.1661C61.5961 73.3283 63.566 75.2982 63.566 77.7283V87.9948H66.4993V77.7283C66.4993 75.2982 68.4692 73.3283 70.8993 73.3283H79.6992C82.1292 73.3283 84.0991 75.2982 84.0991 77.7283V87.9948H87.0324V65.9951C87.0276 61.947 83.7471 58.6666 79.6992 58.6619ZM22.4999 71.8998C21.238 70.9293 19.692 70.4004 18.0999 70.3951H9.30004C7.70799 70.4004 6.16196 70.9293 4.90009 71.8998V65.9951C4.90009 63.5651 6.86999 61.5952 9.30004 61.5952H18.0999C20.53 61.5952 22.4999 63.5651 22.4999 65.9951V71.8998ZM43.0329 71.8998C41.7711 70.9293 40.225 70.4004 38.633 70.3951H29.8331C28.2411 70.4004 26.695 70.9293 25.4332 71.8998V65.9951C25.4332 63.5651 27.4031 61.5952 29.8331 61.5952H38.633C41.0631 61.5952 43.0329 63.5651 43.0329 65.9951V71.8998ZM63.566 71.8998C62.3042 70.9293 60.7581 70.4004 59.1661 70.3951H50.3662C48.7741 70.4004 47.2281 70.9293 45.9662 71.8998V65.9951C45.9662 63.5651 47.9361 61.5952 50.3662 61.5952H59.1661C61.5961 61.5952 63.566 63.5651 63.566 65.9951V71.8998ZM84.0991 71.8998C82.8372 70.9293 81.2912 70.4004 79.6992 70.3951H70.8993C69.3072 70.4004 67.7612 70.9293 66.4993 71.8998V65.9951C66.4993 63.5651 68.4692 61.5952 70.8993 61.5952H79.6992C82.1292 61.5952 84.0991 63.5651 84.0991 65.9951V71.8998Z" fill="white"/>
<path d="M88.4809 1.37462C88.4809 1.33942 88.4927 1.30716 88.4809 1.27196C88.4608 1.19367 88.4342 1.11722 88.4017 1.04316C88.3808 0.958093 88.3524 0.875227 88.3167 0.795295C88.2613 0.699779 88.1949 0.61123 88.1187 0.531298C88.0804 0.469882 88.0371 0.4114 87.9896 0.356767C87.9749 0.343567 87.9544 0.3421 87.9397 0.328901C87.8671 0.280501 87.7905 0.238335 87.7109 0.202769C87.5498 0.112937 87.3723 0.056654 87.1888 0.0370376C87.0755 0.0132045 86.9598 0.00348798 86.8442 0.0077046L75.111 1.47435C75.0558 1.48884 75.0013 1.50644 74.9482 1.52715C54.7117 3.80559 34.2835 3.80559 14.0471 1.52715C13.9911 1.50534 13.9338 1.48719 13.8755 1.47289L2.14228 0.00623795C2.01926 0.00165467 1.89607 0.0121045 1.77562 0.0370376C1.59907 0.0599539 1.42821 0.116237 1.27256 0.202769C1.19354 0.237235 1.11801 0.279035 1.04669 0.327434C1.03203 0.339167 1.01149 0.3421 0.996827 0.3553C0.948244 0.410116 0.904612 0.468965 0.866295 0.531298C0.79058 0.61068 0.724581 0.698863 0.669765 0.793828C0.633832 0.874127 0.605232 0.957543 0.584699 1.04316C0.551516 1.11649 0.525116 1.19257 0.5055 1.27049C0.5055 1.30569 0.5143 1.33795 0.5055 1.37315C0.4967 1.40835 0.5011 1.43182 0.5011 1.46262V51.3287C0.5011 52.1386 1.15779 52.7953 1.96775 52.7953H7.83434C8.23712 52.7955 8.62212 52.6299 8.89913 52.3377C9.03186 52.1954 9.13544 52.0284 9.20419 51.8464C32.6348 48.7752 56.3663 48.7752 79.7969 51.8464C79.8657 52.0284 79.9692 52.1954 80.102 52.3377C80.379 52.6299 80.764 52.7955 81.1668 52.7953H87.0334C87.8433 52.7953 88.5 52.1386 88.5 51.3287V1.46262C88.5 1.43182 88.4824 1.40542 88.4809 1.37462ZM76.7888 4.27712C77.9289 4.14805 79.0674 4.01404 80.2046 3.87526L80.1944 4.02192C80.1841 4.16859 80.1738 4.33285 80.1621 4.49712C80.1621 4.62325 80.146 4.74791 80.1386 4.88284C80.124 5.11457 80.1108 5.35804 80.0976 5.61617C80.0976 5.73497 80.0858 5.85816 80.08 5.98283C80.0697 6.20283 80.0594 6.43162 80.0506 6.66922C80.0506 6.79242 80.0404 6.91415 80.036 7.04175C80.0228 7.39081 80.011 7.75014 80.0022 8.12707C80.0022 8.23267 80.0022 8.34413 79.9949 8.45266C79.9949 8.74599 79.9832 9.05399 79.9802 9.36639C79.9802 9.518 79.9802 9.67053 79.9802 9.82398C79.9802 10.151 79.9802 10.4884 79.9802 10.8316V11.1821C79.9802 11.6221 79.989 12.0856 79.9978 12.5534C79.9978 12.7001 80.0052 12.8555 80.0096 13.0081C80.0096 13.363 80.0286 13.7238 80.0404 14.0905C80.0404 14.2577 80.0521 14.4219 80.0594 14.5891C80.08 15.0936 80.102 15.6055 80.1313 16.1291C80.1313 16.2142 80.143 16.2992 80.1474 16.3843C80.1759 16.839 80.2067 17.3 80.2398 17.7673C80.253 17.9448 80.2662 18.1252 80.2809 18.3056C80.3146 18.7265 80.3513 19.1504 80.3924 19.5801C80.4056 19.7268 80.4188 19.8823 80.4334 20.0348C80.4892 20.5941 80.5508 21.1582 80.6182 21.7273C80.6358 21.8828 80.6578 22.0382 80.6769 22.1937C80.7312 22.6337 80.7913 23.0869 80.8544 23.5386L80.9336 24.093C81.0177 24.6562 81.1075 25.2223 81.2034 25.7914L81.221 25.9014C81.3237 26.4998 81.4381 27.1011 81.5569 27.7039L81.6669 28.2421C81.7646 28.7164 81.8678 29.1905 81.9763 29.6648C81.9954 29.7499 82.0116 29.8335 82.0321 29.9185C81.9734 29.8056 81.9103 29.7015 81.8531 29.5856C81.7607 29.4125 81.6772 29.238 81.5936 29.0605H81.5877C81.3677 28.5892 81.1565 28.1052 80.9541 27.6086C80.8998 27.4766 80.8426 27.3475 80.7898 27.2126C80.5434 26.5878 80.3117 25.9439 80.0932 25.2869C80.0389 25.1241 79.989 24.9569 79.9362 24.7926C79.767 24.2675 79.6068 23.7351 79.4552 23.1954C79.3995 23.0003 79.3437 22.8038 79.2894 22.6088C79.1105 21.9429 78.9389 21.2712 78.7805 20.5921L78.76 20.51C78.5972 19.8001 78.4476 19.0829 78.3068 18.3657C78.2672 18.1604 78.2291 17.9551 78.1909 17.7497C78.0873 17.1974 77.9894 16.6439 77.8976 16.0895C77.8668 15.9076 77.836 15.7258 77.8067 15.5439C77.6952 14.8399 77.594 14.1389 77.5031 13.4451C77.484 13.2985 77.4679 13.165 77.4503 13.0242C77.3784 12.4566 77.3124 11.8934 77.2537 11.339C77.2317 11.1308 77.2097 10.924 77.1892 10.7201C77.1335 10.1637 77.0845 9.61718 77.0425 9.08039C77.0323 8.96159 77.0205 8.83693 77.0117 8.71813C76.9619 8.08454 76.9223 7.46708 76.8885 6.86868C76.8783 6.68682 76.8695 6.51229 76.8607 6.33483C76.8381 5.89575 76.8202 5.4695 76.8064 5.05591C76.8064 4.88138 76.7947 4.70538 76.7888 4.53525C76.7888 4.44578 76.7888 4.36512 76.7888 4.27712ZM7.03355 29.6619C7.14208 29.1867 7.2453 28.7124 7.34301 28.2392L7.45301 27.701C7.57181 27.0982 7.68621 26.4968 7.78888 25.8984L7.80648 25.7884C7.90419 25.2194 7.99421 24.6533 8.07634 24.0901L8.15554 23.5357C8.2186 23.0839 8.27874 22.6366 8.333 22.1908C8.35207 22.0353 8.37407 21.8798 8.39167 21.7244C8.45913 21.1553 8.52073 20.5912 8.57647 20.0319C8.59113 19.8852 8.60433 19.7297 8.61753 19.5772C8.6586 19.1475 8.69526 18.7236 8.729 18.3027C8.74366 18.1223 8.75686 17.9419 8.77006 17.7644C8.80435 17.296 8.83515 16.8351 8.86246 16.3814C8.86246 16.2963 8.87273 16.2112 8.8786 16.1262C8.90793 15.6026 8.92993 15.0907 8.95046 14.5862C8.95046 14.419 8.96366 14.2547 8.96953 14.0875C8.98126 13.7209 8.99299 13.3542 9.00033 13.0051C9.00033 12.8585 9.00913 12.7001 9.01206 12.5505C9.02086 12.0826 9.02673 11.6236 9.02966 11.1792V10.8316C9.02966 10.4884 9.02966 10.151 9.02966 9.82398C9.02966 9.66943 9.02966 9.5169 9.02966 9.36639C9.02966 9.05399 9.02086 8.74893 9.01499 8.45266C9.01499 8.34413 9.01499 8.23267 9.00766 8.12707C8.99886 7.75014 8.98713 7.39374 8.97393 7.04175C8.97393 6.91415 8.96513 6.79242 8.95926 6.66922C8.95046 6.43162 8.94019 6.20283 8.92993 5.98283C8.92993 5.85816 8.91819 5.73497 8.91233 5.61617C8.89913 5.3595 8.88593 5.11604 8.87126 4.88284C8.87126 4.74791 8.85513 4.62325 8.8478 4.49712C8.83606 4.33285 8.8258 4.17152 8.81553 4.02192L8.80526 3.87526C9.94137 4.01605 11.08 4.15007 12.2211 4.27712C12.2211 4.36512 12.2211 4.44578 12.2211 4.53525C12.202 4.70245 12.1962 4.87844 12.1903 5.05297C12.1756 5.46657 12.1575 5.89281 12.136 6.33189C12.1272 6.50936 12.1184 6.68389 12.1082 6.86575C12.0744 7.46414 12.0348 8.0816 11.985 8.71519C11.9762 8.83399 11.9644 8.95866 11.9542 9.07746C11.9102 9.61425 11.8612 10.1608 11.8075 10.7172C11.787 10.921 11.765 11.1278 11.743 11.3361C11.6843 11.8905 11.6183 12.4537 11.5464 13.0213C11.5288 13.1679 11.5127 13.2999 11.4936 13.4422C11.4027 14.1359 11.3015 14.837 11.19 15.541C11.1607 15.7228 11.1299 15.9047 11.0991 16.0866C11.0082 16.64 10.9105 17.1933 10.8058 17.7468C10.7676 17.9521 10.7295 18.1575 10.6899 18.3628C10.5432 19.08 10.3966 19.7972 10.2367 20.507L10.2162 20.5892C10.0578 21.2682 9.88618 21.94 9.70725 22.6058C9.65299 22.8038 9.59725 23.0003 9.54152 23.1925C9.39101 23.7322 9.23059 24.2646 9.06046 24.7897C9.00766 24.9539 8.95779 25.1211 8.90353 25.2839C8.685 25.941 8.45327 26.5848 8.20687 27.2096C8.15407 27.3446 8.09687 27.4736 8.04261 27.6056C7.84021 28.1023 7.62901 28.5863 7.40901 29.0576C7.32541 29.2351 7.24182 29.4096 7.15675 29.5827C7.09955 29.6985 7.03648 29.8027 6.97782 29.9156C6.99835 29.8305 7.01449 29.7469 7.03355 29.6619ZM3.4344 3.14487L5.8177 3.47339L5.8265 3.58633C5.84117 3.76379 5.85437 3.95739 5.86903 4.17299C5.86903 4.26538 5.88223 4.36658 5.8881 4.46632C5.9013 4.66578 5.9145 4.87844 5.92623 5.10284C5.92623 5.20697 5.93797 5.3111 5.94383 5.4211C5.95997 5.73203 5.9761 6.06203 5.99077 6.41402C5.99077 6.49469 5.99076 6.58269 6.00103 6.66629C6.01276 6.97043 6.02358 7.28668 6.0333 7.61521C6.0333 7.73401 6.0333 7.84987 6.04356 7.97014C6.05383 8.37787 6.06116 8.80466 6.06703 9.24759C6.06703 9.34879 6.06703 9.45439 6.06703 9.55705C6.06703 9.9481 6.06703 10.3511 6.06703 10.7656V11.1088C6.06703 11.5977 6.0597 12.1032 6.04503 12.6253C6.04503 12.7514 6.04503 12.8805 6.03623 13.0066C6.0245 13.4642 6.00928 13.9311 5.99077 14.4073L5.97756 14.7431C5.9541 15.299 5.9233 15.868 5.8881 16.4444C5.8793 16.5911 5.8705 16.7378 5.86023 16.8756C5.8265 17.3978 5.7869 17.9257 5.7429 18.4625C5.7429 18.5579 5.72823 18.6517 5.71943 18.7559C5.6681 19.3631 5.6065 19.9791 5.53904 20.5994C5.5229 20.7534 5.5053 20.9074 5.4877 21.0614C5.42226 21.6481 5.34892 22.2401 5.26771 22.8376C5.25891 22.9006 5.25304 22.9607 5.24424 23.0223C5.15624 23.6603 5.05651 24.3057 4.95091 24.951C4.92304 25.1167 4.89518 25.2839 4.86585 25.4496C4.75438 26.1067 4.63558 26.7696 4.50212 27.4282L4.49038 27.4824C4.36132 28.1248 4.21759 28.7687 4.06799 29.4111C4.02839 29.5797 3.98879 29.7484 3.94772 29.9171C3.78933 30.5712 3.62359 31.2253 3.44173 31.878L3.4344 31.9161V3.14487ZM3.4344 49.8561V38.8621C3.45346 38.89 3.47253 38.9223 3.4916 38.9531C3.5664 39.0704 3.63826 39.2039 3.72479 39.3461C3.76293 39.4136 3.80106 39.4811 3.83919 39.5529C3.92719 39.7187 4.01812 39.9049 4.11052 40.1029C4.14132 40.166 4.17065 40.2217 4.19999 40.2892C4.32025 40.5561 4.44107 40.8495 4.56225 41.1692C4.59452 41.2528 4.62532 41.3481 4.65611 41.4361C4.74705 41.6913 4.83798 41.9626 4.92891 42.253C4.96998 42.3865 5.01104 42.5273 5.05064 42.6681C5.13424 42.9614 5.21637 43.2665 5.29557 43.5892C5.33224 43.7358 5.36891 43.8825 5.40411 44.0292C5.51557 44.5087 5.62264 45.0162 5.7209 45.5677C5.73117 45.6249 5.73997 45.6923 5.74877 45.7495C5.83677 46.2511 5.91743 46.7879 5.99223 47.3511C6.01863 47.5594 6.04356 47.7794 6.0685 47.995C6.1213 48.4476 6.17025 48.9213 6.21516 49.4161C6.22836 49.5628 6.2401 49.7095 6.25183 49.8561H3.4344ZM82.4222 38.4368C82.2755 38.7302 82.1289 39.066 81.9734 39.418C81.9441 39.4855 81.9162 39.55 81.8869 39.6204C81.7402 39.9768 81.5936 40.3625 81.4557 40.7791C81.4278 40.8583 81.4014 40.9419 81.375 41.024C81.2284 41.464 81.0817 41.9392 80.9482 42.4554V42.4892C80.8148 42.9937 80.6901 43.5452 80.5698 44.1215C80.5493 44.2271 80.5258 44.3283 80.5053 44.4369C80.3909 45.0168 80.2848 45.6331 80.187 46.2863C80.168 46.4154 80.1504 46.5474 80.1328 46.6779C80.036 47.3687 79.948 48.0888 79.8746 48.8647V48.8838C56.3846 45.8331 32.5989 45.8331 9.10886 48.8838L9.11766 48.8779C9.04433 48.0888 8.95339 47.357 8.85513 46.6559C8.839 46.5371 8.82286 46.4169 8.80526 46.301C8.70755 45.6401 8.60048 45.0157 8.48407 44.4281C8.465 44.3269 8.443 44.2315 8.42247 44.1348C8.3022 43.5481 8.1746 42.9893 8.03967 42.4774V42.4598C7.90327 41.9421 7.75954 41.4698 7.61141 41.0225C7.58648 40.9419 7.56008 40.8612 7.53368 40.7835C7.39086 40.366 7.2442 39.9783 7.09368 39.6204C7.06582 39.5515 7.03795 39.4884 7.01009 39.4224C6.86342 39.0675 6.70796 38.7331 6.55836 38.4339C6.40289 38.1288 6.25036 37.8604 6.10076 37.6096L6.02303 37.4806C5.87637 37.2474 5.7385 37.0406 5.60357 36.8514L5.5757 36.8088C5.62997 36.759 5.6769 36.6974 5.7297 36.646C6.17996 36.2216 6.60547 35.7716 7.00422 35.2982C7.03942 35.2557 7.07168 35.2087 7.10688 35.1662C7.48968 34.6983 7.85194 34.1997 8.19954 33.6805C8.26407 33.5851 8.33007 33.4942 8.39314 33.3974C8.73926 32.8621 9.06779 32.3004 9.38019 31.7225C9.44912 31.5934 9.51805 31.4644 9.58552 31.3353C9.89058 30.7486 10.1839 30.1429 10.4567 29.5211C10.5007 29.4228 10.5403 29.3216 10.5828 29.2277C10.8371 28.6323 11.0777 28.0256 11.3044 27.4076C11.3396 27.3123 11.3778 27.217 11.413 27.1143C11.6491 26.4587 11.8662 25.7943 12.073 25.1182C12.1199 24.9642 12.1668 24.8117 12.2123 24.6577C12.4079 23.9918 12.5931 23.3221 12.7681 22.6484C12.8033 22.5134 12.8341 22.3785 12.8679 22.2421C13.0307 21.585 13.1847 20.9221 13.3255 20.268C13.3387 20.2049 13.3548 20.1419 13.368 20.0788C13.5147 19.3821 13.6467 18.6899 13.7699 18.002L13.8491 17.562C13.9644 16.8982 14.07 16.2426 14.1659 15.5952C14.1864 15.4486 14.2055 15.3195 14.226 15.1816C14.3213 14.5217 14.4093 13.869 14.4856 13.2354C14.4856 13.1885 14.4959 13.1445 14.5017 13.099C14.5751 12.4815 14.6396 11.8846 14.6983 11.3009C14.7085 11.1924 14.7203 11.0824 14.7305 10.9753C14.7877 10.3886 14.8361 9.83571 14.8772 9.29745C14.886 9.18452 14.8948 9.07599 14.9021 8.96599C14.9432 8.43067 14.9784 7.91587 15.0077 7.43481L15.0165 7.28815C15.0449 6.8091 15.0684 6.36067 15.0869 5.94323V5.83763C15.106 5.40644 15.1192 5.02217 15.1294 4.66431V4.59978C34.6482 6.69562 54.3353 6.69562 73.854 4.59978V4.66431C73.8643 5.01631 73.8775 5.39764 73.8966 5.83763V5.94323C73.9151 6.35976 73.9386 6.808 73.967 7.28815L73.9758 7.43481C74.0051 7.91587 74.0403 8.43067 74.0814 8.96599C74.0887 9.07599 74.0975 9.18452 74.1063 9.29745C74.1488 9.83571 74.1973 10.393 74.253 10.9753C74.2632 11.0824 74.275 11.1924 74.2852 11.3009C74.3439 11.8876 74.4084 12.4742 74.4818 13.099C74.4818 13.1445 74.492 13.1885 74.4979 13.2354C74.5742 13.869 74.6622 14.5217 74.7575 15.1816C74.778 15.3195 74.7971 15.4559 74.8176 15.5952C74.9154 16.2426 75.021 16.8982 75.1344 17.562L75.2136 18.002C75.3368 18.6899 75.4688 19.3821 75.6155 20.0788C75.6287 20.1419 75.6448 20.2049 75.658 20.268C75.8047 20.9265 75.9514 21.588 76.1156 22.2421C76.1494 22.3785 76.1802 22.5134 76.2154 22.6484C76.3864 23.323 76.5717 23.9927 76.7712 24.6577C76.8167 24.8117 76.8636 24.9642 76.9105 25.1182C77.1173 25.7914 77.3344 26.4587 77.5705 27.1143C77.6057 27.2111 77.6439 27.3064 77.6791 27.4076C77.907 28.0266 78.1475 28.6332 78.4007 29.2277C78.4432 29.326 78.4828 29.4272 78.5268 29.5211C78.7996 30.1429 79.0929 30.7457 79.398 31.3353C79.4654 31.4644 79.5344 31.5934 79.6033 31.7225C79.9157 32.3004 80.2442 32.8621 80.5904 33.3974C80.6534 33.4942 80.7194 33.5851 80.784 33.6805C81.1316 34.1997 81.4938 34.6983 81.8766 35.1662C81.9118 35.2087 81.9441 35.2557 81.9793 35.2982C82.3778 35.7716 82.8035 36.2216 83.2538 36.646C83.3066 36.6974 83.3535 36.759 83.4005 36.8088L83.3755 36.844C83.2406 37.0318 83.0998 37.24 82.9561 37.4732L82.8783 37.6023C82.7317 37.8531 82.5762 38.12 82.4222 38.4251V38.4368ZM85.5667 49.862H82.7507C82.7625 49.7241 82.7727 49.5848 82.7845 49.4499C82.8305 48.9395 82.8793 48.4506 82.9311 47.9832C82.9546 47.7838 82.9766 47.577 83.0015 47.3848C83.0837 46.7645 83.1717 46.1734 83.2685 45.6249C83.2846 45.5295 83.3037 45.4474 83.3213 45.355C83.4054 44.9042 83.4929 44.4789 83.5838 44.079C83.6249 43.9001 83.6674 43.7314 83.7099 43.5613C83.7823 43.268 83.8557 42.9917 83.9299 42.7326C83.9769 42.5669 84.0238 42.3997 84.0766 42.2457C84.1543 41.9934 84.2335 41.7632 84.3127 41.5373C84.4104 41.2645 84.5083 41.0102 84.606 40.7747C84.6574 40.6485 84.7087 40.5165 84.7527 40.4007C84.8334 40.2188 84.9111 40.0516 84.9888 39.8932L85.0695 39.7289C85.2204 39.4318 85.3865 39.1425 85.5667 38.8621V49.862ZM85.5667 31.9161L85.555 31.875C85.3716 31.2194 85.2059 30.5624 85.046 29.9053C85.0064 29.7425 84.9683 29.5797 84.9302 29.4169C84.7762 28.7555 84.6295 28.097 84.4902 27.434C84.3553 26.7638 84.235 26.095 84.1221 25.4291C84.0957 25.2751 84.0693 25.1226 84.0443 24.9701C83.9373 24.3145 83.8361 23.6589 83.751 23.0106C83.751 22.9681 83.7407 22.927 83.7349 22.8845C83.6498 22.2612 83.575 21.6437 83.5046 21.0306C83.4899 20.8957 83.4738 20.7593 83.4591 20.6244C83.3902 19.9879 83.3286 19.3557 83.2743 18.7339C83.2743 18.6693 83.2655 18.6063 83.2597 18.5417C83.2118 17.9639 83.1693 17.3943 83.1321 16.8331L83.1101 16.487C83.0734 15.8886 83.0426 15.299 83.0177 14.727C83.0177 14.6449 83.0177 14.5657 83.0089 14.485C82.9863 13.9649 82.9698 13.4554 82.959 12.9567C82.959 12.8614 82.959 12.7646 82.959 12.6634C82.9473 12.1208 82.9399 11.5928 82.937 11.0824C82.937 10.9958 82.937 10.9108 82.937 10.8242C82.937 10.3666 82.937 9.92078 82.937 9.49105C82.937 9.42212 82.937 9.34439 82.937 9.28279C82.9429 8.81346 82.9511 8.3632 82.9619 7.932C82.9619 7.84841 82.9619 7.76774 82.9693 7.68561C82.9795 7.29988 82.9927 6.92882 83.0059 6.57829V6.44776C83.0206 6.06936 83.0382 5.71443 83.0558 5.3859L83.0675 5.16004C83.0837 4.86671 83.0998 4.59978 83.1159 4.35338V4.26245C83.1335 3.99552 83.1511 3.76086 83.1673 3.54673V3.47046L85.5667 3.14487V31.9161Z" fill="white"/>
</g>
<defs>
<clipPath id="clip0_268_121">
<rect width="88" height="88" fill="white" transform="translate(0.5)"/>
</clipPath>
</defs>
</svg>
