<svg width="83" height="88" viewBox="0 0 83 88" fill="none" xmlns="http://www.w3.org/2000/svg">
<path d="M82.4719 34.7069C82.4607 34.6677 82.4475 34.629 82.4323 34.591C82.4323 34.5749 82.4235 34.5558 82.4162 34.5397C82.348 34.4073 82.26 34.2861 82.1551 34.1803C82.1316 34.1554 82.1023 34.1378 82.0774 34.1143C81.976 34.0243 81.863 33.9484 81.7415 33.8884C81.6975 33.8679 81.6564 33.8474 81.6109 33.8312C81.4492 33.7669 81.2774 33.732 81.1034 33.7285H20.7903L20.4045 33.2474L39.3291 27.3054L39.5594 27.2336L39.8982 27.128L58.0865 21.4163L61.9456 20.2047L67.6573 18.4123L81.5435 14.0544C82.3163 13.8115 82.7457 12.9881 82.5027 12.2152L78.9883 1.01901C78.9795 0.992612 78.959 0.97501 78.9487 0.948608C78.9003 0.81953 78.8335 0.697969 78.7507 0.587776C78.7243 0.552573 78.7037 0.514436 78.6744 0.482167C78.665 0.467866 78.6546 0.454114 78.6436 0.441097C78.5407 0.335304 78.4219 0.246196 78.2916 0.177074C78.2578 0.158005 78.2197 0.149204 78.1845 0.13307C78.0648 0.079165 77.9386 0.0412116 77.809 0.0201265C77.7591 0.0127925 77.7137 0.00692531 77.6623 0.00399172C77.4887 -0.00902609 77.3143 0.00985889 77.1475 0.0597299L36.1593 12.9265L32.3662 14.1175L25.8536 16.1622L7.27669 21.9942H1.89648C1.08644 21.9942 0.429688 22.6509 0.429688 23.461V83.5996C0.429688 86.0299 2.39978 88 4.83007 88H78.1698C80.6001 88 82.5702 86.0299 82.5702 83.5996V35.1953C82.5702 35.1675 82.5555 35.144 82.5541 35.1161C82.5464 34.9764 82.5187 34.8385 82.4719 34.7069ZM78.1698 36.6621L71.5692 45.4629H63.5019L70.1024 36.6621H78.1698ZM66.4355 36.6621L59.8349 45.4629H51.7675L58.3681 36.6621H66.4355ZM54.7011 36.6621L48.1005 45.4629H40.0331L46.6337 36.6621H54.7011ZM42.9667 36.6621L36.3662 45.4629H28.2988L34.8994 36.6621H42.9667ZM31.2324 36.6621L24.6318 45.4629H23.8984V38.1289C23.8986 37.7958 23.7853 37.4724 23.5772 37.2122L23.1518 36.6812L31.2324 36.6621ZM77.5068 6.10146L79.267 11.7002L75.0661 13.0174L77.5068 6.10146ZM69.8854 5.41647L75.2362 3.73845L71.5692 14.1102L66.6863 15.643L63.8715 16.523L67.5385 6.14986L69.8854 5.41647ZM57.2827 9.37388L64.0328 7.25289L60.3659 17.6261L52.6696 20.0419L56.3366 9.66724L57.2827 9.37388ZM52.8427 10.7673L49.1757 21.139L41.4809 23.5549L45.1479 13.1831L52.8427 10.7673ZM33.9504 16.702L41.6466 14.2818L37.9796 24.6593L30.2834 27.0752L33.9504 16.702ZM30.4594 17.7918L26.7924 28.1635L22.0517 29.6538L19.0961 30.5808L22.7631 20.2076L30.4594 17.7918ZM19.2501 21.3107L16.6803 28.5948L12.541 23.417L19.2501 21.3107ZM3.36328 24.9278H9.99319L16.7742 33.4058L18.9362 36.1062L19.963 37.3941L20.1405 37.6156L20.956 38.6335V45.4629H3.36328V24.9278ZM79.6366 83.5996C79.6366 84.4096 78.9799 85.0664 78.1698 85.0664H4.83007C4.02003 85.0664 3.36328 84.4096 3.36328 83.5996V48.3965H79.6366V83.5996ZM79.6366 45.4629H75.2362L79.6366 39.5957V45.4629Z" fill="white"/>
</svg>
