<svg width="89" height="88" viewBox="0 0 89 88" fill="none" xmlns="http://www.w3.org/2000/svg">
<g clip-path="url(#clip0_268_244)">
<path d="M19.8764 84.4095V71.625H30.6264L30.625 84.4095L25.8081 82.4816L19.8764 84.4095ZM19.8764 84.4095L24.6933 82.4816L19.8764 84.4095ZM33.6236 86.625V79.875H41.7486C42.5766 79.875 43.2486 79.2045 43.2486 78.375C43.2486 77.5457 42.5781 76.875 41.75 76.875H33.625V71.625H40.375C41.203 71.625 41.875 70.9545 41.875 70.125C41.875 69.2955 41.203 68.625 40.375 68.625H11.5C10.672 68.625 10 69.2955 10 70.125C10 70.9545 10.672 71.625 11.5 71.625H16.875V76.875H12.875C9.15316 76.875 6.125 73.8468 6.125 70.125C6.125 66.4032 9.15316 63.375 12.875 63.375H17C17.828 63.375 18.5 62.7045 18.5 61.875C18.5 61.0455 17.828 60.375 17 60.375H12.875C10.2559 60.375 7.8783 61.4156 6.125 63.1026V8.25C6.125 5.28579 8.53579 2.875 11.5 2.875H60.875V48.125C60.875 48.9545 61.547 49.625 62.375 49.625C63.203 49.625 63.875 48.9545 63.875 48.125V1.375C63.875 0.545508 63.203 -0.125 62.375 -0.125H11.5C6.88109 -0.125 3.125 3.63109 3.125 8.25V70.125C3.125 75.5001 7.49845 79.875 12.875 79.875H16.875V86.625C16.875 87.1231 17.1225 87.588 17.5334 87.8669L17.5336 87.867C17.946 88.146 18.468 88.203 18.9314 88.0185L18.9316 88.0184L25.2486 85.4905L31.5657 88.0184L31.6121 87.9024L31.5657 88.0184C31.746 88.0906 31.9351 88.125 32.1236 88.125C32.4194 88.125 32.7132 88.0365 32.9648 87.8672L32.9653 87.8669C33.3775 87.5865 33.6236 87.123 33.6236 86.625ZM25.8079 82.4816C25.4495 82.3376 25.0519 82.3376 24.6934 82.4816H25.8079Z" fill="white" stroke="white" stroke-width="0.25"/>
<path d="M41.75 60.375H22.5C21.672 60.375 21 61.0455 21 61.875C21 62.7045 21.672 63.375 22.5 63.375H41.75C42.578 63.375 43.25 62.7045 43.25 61.875C43.25 61.0455 42.578 60.375 41.75 60.375Z" fill="white" stroke="white" stroke-width="0.25"/>
<path d="M62.375 66.125C64.7183 66.125 66.625 64.2183 66.625 61.875C66.625 59.5317 64.7183 57.625 62.375 57.625C60.0317 57.625 58.125 59.5317 58.125 61.875C58.125 64.2183 60.0317 66.125 62.375 66.125ZM62.375 60.625C63.0637 60.625 63.625 61.1851 63.625 61.875C63.625 62.5649 63.0637 63.125 62.375 63.125C61.6863 63.125 61.125 62.5649 61.125 61.875C61.125 61.1851 61.6863 60.625 62.375 60.625Z" fill="white" stroke="white" stroke-width="0.25"/>
<path d="M66.625 78.375C66.625 76.0317 64.7183 74.125 62.375 74.125C60.0317 74.125 58.125 76.0317 58.125 78.375C58.125 80.7183 60.0317 82.625 62.375 82.625C64.7183 82.625 66.625 80.7183 66.625 78.375ZM61.125 78.375C61.125 77.6851 61.6863 77.125 62.375 77.125C63.0637 77.125 63.625 77.6851 63.625 78.375C63.625 79.0649 63.0637 79.625 62.375 79.625C61.6863 79.625 61.125 79.0649 61.125 78.375Z" fill="white" stroke="white" stroke-width="0.25"/>
<path d="M54.125 65.875C51.7817 65.875 49.875 67.7817 49.875 70.125C49.875 72.4683 51.7817 74.375 54.125 74.375C56.4683 74.375 58.375 72.4683 58.375 70.125C58.375 67.7817 56.4683 65.875 54.125 65.875ZM54.125 71.375C53.4363 71.375 52.875 70.8149 52.875 70.125C52.875 69.4351 53.4363 68.875 54.125 68.875C54.8137 68.875 55.375 69.4351 55.375 70.125C55.375 70.8149 54.8137 71.375 54.125 71.375Z" fill="white" stroke="white" stroke-width="0.25"/>
<path d="M70.625 74.375C72.9683 74.375 74.875 72.4683 74.875 70.125C74.875 67.7817 72.9683 65.875 70.625 65.875C68.2817 65.875 66.375 67.7817 66.375 70.125C66.375 72.4683 68.2817 74.375 70.625 74.375ZM70.625 68.875C71.3137 68.875 71.875 69.4351 71.875 70.125C71.875 70.8149 71.3137 71.375 70.625 71.375C69.9363 71.375 69.375 70.8149 69.375 70.125C69.375 69.4351 69.9363 68.875 70.625 68.875Z" fill="white" stroke="white" stroke-width="0.25"/>
<path d="M84.375 85.125H72.2809C77.1478 81.9003 80.375 76.3885 80.375 70.125C80.375 60.2 72.3 52.125 62.375 52.125C52.45 52.125 44.375 60.2 44.375 70.125C44.375 80.05 52.45 88.125 62.375 88.125H84.375C85.203 88.125 85.875 87.4545 85.875 86.625C85.875 85.7955 85.203 85.125 84.375 85.125ZM47.375 70.125C47.375 61.8547 54.1047 55.125 62.375 55.125C70.6453 55.125 77.375 61.8547 77.375 70.125C77.375 78.3953 70.6453 85.125 62.375 85.125C54.1047 85.125 47.375 78.3953 47.375 70.125Z" fill="white" stroke="white" stroke-width="0.25"/>
<path d="M15.625 8.125C14.797 8.125 14.125 8.79551 14.125 9.625V17.875C14.125 18.7045 14.797 19.375 15.625 19.375H51.375C52.203 19.375 52.875 18.7045 52.875 17.875V9.625C52.875 8.79551 52.203 8.125 51.375 8.125H15.625ZM49.875 16.375H17.125V11.125H49.875V16.375Z" fill="white" stroke="white" stroke-width="0.25"/>
</g>
<defs>
<clipPath id="clip0_268_244">
<rect width="88" height="88" fill="white" transform="translate(0.5)"/>
</clipPath>
</defs>
</svg>
