<svg width="702" height="163" viewBox="0 0 702 163" fill="none" xmlns="http://www.w3.org/2000/svg">
<g filter="url(#filter0_d_274_2996)">
<path d="M105.465 133.831C105.465 132.658 117.606 135.276 117.606 133.758C117.606 134.53 129.584 132.729 129.584 132.07C129.584 131.244 138.671 131.548 138.671 129.495C138.671 131.873 149.504 132.724 149.504 130.565C149.504 127.967 157.738 127.167 157.738 128.484C157.738 126.5 166.487 131.734 166.487 129.87C166.487 130.118 175.97 127.458 175.97 127.532C175.97 127.716 184.085 130.043 184.085 130.566C184.085 129.621 193.257 130.035 193.257 130.524C193.257 132.677 202.716 130.824 202.716 132.013C202.716 131.484 212.855 131.883 212.855 131.885C212.855 132.45 222.489 131.828 222.489 132.96C222.489 130.521 232.26 136.313 232.26 133.704C232.26 134.392 240.772 138.239 240.772 137.451C240.772 136.188 251.068 137.931 251.068 136.948C251.068 136.042 260.94 136.433 260.94 137.454C260.94 136.273 269.665 141.535 269.665 140.693C269.665 141.066 279.541 140.204 279.541 140.526C279.541 141.934 288.974 142.819 288.974 141.357C288.974 140.681 298.541 139.05 298.541 141.275C298.541 141.077 308.02 141.037 308.02 142.203C308.02 143.28 318.351 141.014 318.351 141.927C318.351 141.269 327.931 140.251 327.931 139.801C327.931 139.449 337.097 137.014 337.097 137.384C337.097 137.284 348.681 136.618 348.681 138.056C348.681 139.108 357.524 135.096 357.524 135.171C357.524 135.28 365.225 131.66 365.225 130.911C365.225 131.168 374.865 128.477 374.865 128.895C374.865 128.546 385.563 129.521 385.563 128.606C385.563 128.04 395.913 128.449 395.913 128.554C395.913 128.599 405.82 125.559 405.82 124.996C405.82 124.678 415.899 123.191 415.899 123.714C415.899 123.65 426.846 124.909 426.846 124.207C426.846 123.599 433.607 119.797 433.607 119.478C433.607 118.542 443.563 117.988 443.563 117.927C443.563 118.925 454.06 117.027 454.06 117.387C454.06 118.14 464.241 118.446 464.241 118.723C464.241 119.11 474.725 116.784 474.725 116.777C474.725 115.957 483.784 119.732 483.784 119.714C483.784 119.812 495.031 121.558 495.031 120.038C495.031 119.655 503.09 123.554 503.09 123.969C503.09 125.57 512.328 128.43 512.328 126.608C512.328 128.94 520.516 125.108 520.516 125.349C520.516 125.361 529.357 126.406 529.357 125.56C529.357 125.939 538.306 125.335 538.306 126C538.306 127.654 548.444 123.475 548.444 122.588C548.444 122.002 558.92 127.117 558.92 124.224C558.92 121.623 568.893 124.914 568.893 126.082C568.893 125.426 579.525 127.091 579.525 126.577C579.525 125.6 588.741 128.148 588.741 128.857C588.741 128.032 598.67 130.658 598.67 129.823C598.67 128.458 607.436 135.341 607.436 133.533C607.436 133.777 617.312 133.924 617.312 134.815C617.312 132.072 627.614 134.165 627.614 134.912C627.614 134.967 638.314 133.256 638.314 133.748C638.314 135.025 647.977 136.968 647.977 135.524C647.977 135.771 672.286 137.697 672.286 136.758C672.286 136.471 678.514 132.979 678.514 134.372C678.514 134.65 682.09 130.211 682.09 129.823C682.09 129.715 686 123.949 686 124.658C686 124.869 683.664 118.941 683.664 119.498C683.664 120.481 683.096 114.352 683.096 114.5C683.096 114.65 682.948 109.873 682.948 109.386C682.948 109.102 683.599 105.046 683.599 104.5C683.599 104.604 683.5 87 683.5 87L684 67.5L682.143 62.7956L678.71 57.9624L676.622 52.9623L668.671 48.9271L667.107 43.2145L658.403 39.6137L657.12 33.8048L648.764 29.8196L645.155 25.3815L642.946 20.4584L632.624 19.9256L622.88 17.289L612.947 19.343L603.258 16.7056L593.435 16.6507L583.609 16.6414L573.724 17.7847L563.993 15.9154L554.158 16.0966L544.368 15.3527L534.525 15.6829L524.574 18.214L514.788 17.4174L505.039 15.827L495.218 15.7057L485.345 16.7427L475.541 16.2713L465.696 16.7249L455.916 15.6958L446.154 14.2081L436.245 16.2064L426.507 14.044L416.605 15.9967L406.762 16.5202L397.032 13.9399L387.109 16.752L377.341 15.1217L367.565 13.6233L357.701 14.9056L347.859 15.5717L338.034 15.6965L328.221 15.3713L318.458 12.8067L308.63 12.8858L298.773 14.5176L288.925 15.9932L279.123 14.8193L269.323 13.1554L259.501 12.9072L249.652 15.6095L239.843 14.0768L230.019 14.0604L220.196 14.0854L210.374 15.1309L200.546 12.5L190.736 15.4305L180.915 15.2158L171.072 13.1668L161.25 13.4029L151.45 14.8542L141.617 14.3043L131.786 13.9684L122.004 15.6437L112.142 14.1745L102.895 14.733L93.597 14.641L84.2968 14.8927L75.7919 17.6199L66.3169 17.3946L57.2497 18.5321L48.7136 20.5597L42.4539 24.3074L34.1847 26.8171L27.364 30.4351L24.8303 35.3375L22.638 40.1065L24.1081 45.1601L21.8264 49.815L22.0527 54.6425L21.8251 59.4672L20.275 64.5144L18.2914 69.5558L17.2657 74.6209L16.6235 79.6966L16.2617 84.7794L18.6028 88L20.6707 94.9016L19.5881 99.9773L19.7005 105.042L21.7898 110.024L17.2671 115.383L18.603 120.458C18.603 120.458 22.1475 126.508 22.1475 126.331C22.1475 126.579 28.4209 131.742 28.4209 131.227C28.4209 131.181 37.0341 134.794 37.0341 133.711C37.0341 133.59 45.8954 131.926 45.8954 131.385C45.8954 130.406 55.7633 129.935 55.7633 129.942C55.7633 131.582 65.7966 132.393 65.7966 131.438C65.7966 131.647 75.6781 132.188 75.6781 132.029C75.6781 133.843 85.7371 129.273 85.7371 131.339C85.7371 130.027 95.4478 133.674 95.4478 133.438C95.4478 132.757 105.465 132.884 105.465 133.831Z" fill="white"/>
</g>
<defs>
<filter id="filter0_d_274_2996" x="0.261719" y="0.5" width="701.739" height="162" filterUnits="userSpaceOnUse" color-interpolation-filters="sRGB">
<feFlood flood-opacity="0" result="BackgroundImageFix"/>
<feColorMatrix in="SourceAlpha" type="matrix" values="0 0 0 0 0 0 0 0 0 0 0 0 0 0 0 0 0 0 127 0" result="hardAlpha"/>
<feOffset dy="4"/>
<feGaussianBlur stdDeviation="8"/>
<feComposite in2="hardAlpha" operator="out"/>
<feColorMatrix type="matrix" values="0 0 0 0 0 0 0 0 0 0 0 0 0 0 0 0 0 0 0.65 0"/>
<feBlend mode="normal" in2="BackgroundImageFix" result="effect1_dropShadow_274_2996"/>
<feBlend mode="normal" in="SourceGraphic" in2="effect1_dropShadow_274_2996" result="shape"/>
</filter>
</defs>
</svg>
