<svg width="447" height="122" viewBox="0 0 447 122" fill="none" xmlns="http://www.w3.org/2000/svg">
<g clip-path="url(#clip0_245_1904)" filter="url(#filter0_d_245_1904)">
<rect width="32" height="202" transform="matrix(-0.91042 0.413685 0.413685 0.91042 392.95 -84.0828)" fill="#444547"/>
<rect width="59" height="202" transform="matrix(-0.91042 0.413685 0.413685 0.91042 359.583 -81.1136)" fill="#ECEAED"/>
<rect width="31" height="202" transform="matrix(-0.91042 0.413685 0.413685 0.91042 301.657 -66.8574)" fill="#444547"/>
<rect width="60" height="202" transform="matrix(-0.91042 0.413685 0.413685 0.91042 269.201 -64.302)" fill="#ECEAED"/>
<rect width="31" height="202" transform="matrix(-0.91042 0.413685 0.413685 0.91042 210.342 -49.7496)" fill="#444547"/>
<rect width="59" height="202" transform="matrix(-0.91042 0.413685 0.413685 0.91042 177.908 -47.0767)" fill="#ECEAED"/>
<rect width="32" height="202" transform="matrix(-0.91042 0.413685 0.413685 0.91042 119.959 -32.938)" fill="#444547"/>
<rect width="59" height="202" transform="matrix(-0.91042 0.413685 0.413685 0.91042 86.5928 -29.9688)" fill="#ECEAED"/>
<rect width="32" height="202" transform="matrix(-0.91042 0.413685 0.413685 0.91042 28.6445 -15.8301)" fill="#444547"/>
<rect width="59" height="202" transform="matrix(-0.91042 0.413685 0.413685 0.91042 -4.72217 -12.861)" fill="#ECEAED"/>
<rect width="32" height="202" transform="matrix(-0.91042 0.413685 0.413685 0.91042 -62.6704 1.27783)" fill="#303133"/>
</g>
<defs>
<filter id="filter0_d_245_1904" x="0" y="0" width="446.524" height="121.455" filterUnits="userSpaceOnUse" color-interpolation-filters="sRGB">
<feFlood flood-opacity="0" result="BackgroundImageFix"/>
<feColorMatrix in="SourceAlpha" type="matrix" values="0 0 0 0 0 0 0 0 0 0 0 0 0 0 0 0 0 0 127 0" result="hardAlpha"/>
<feOffset dy="4"/>
<feGaussianBlur stdDeviation="2"/>
<feComposite in2="hardAlpha" operator="out"/>
<feColorMatrix type="matrix" values="0 0 0 0 0 0 0 0 0 0 0 0 0 0 0 0 0 0 0.25 0"/>
<feBlend mode="normal" in2="BackgroundImageFix" result="effect1_dropShadow_245_1904"/>
<feBlend mode="normal" in="SourceGraphic" in2="effect1_dropShadow_245_1904" result="shape"/>
</filter>
<clipPath id="clip0_245_1904">
<rect width="439.972" height="33" fill="white" transform="matrix(-0.982899 0.184146 0.184146 0.982899 436.448 0)"/>
</clipPath>
</defs>
</svg>
