<svg width="448" height="41" viewBox="0 0 448 41" fill="none" xmlns="http://www.w3.org/2000/svg">
<g clip-path="url(#clip0_245_1891)" filter="url(#filter0_d_245_1891)">
<rect x="31.2695" y="-90.6545" width="32" height="202" transform="rotate(13.8252 31.2695 -90.6545)" fill="#444547"/>
<rect x="64.6128" y="-93.8805" width="59" height="202" transform="rotate(13.8252 64.6128 -93.8805)" fill="#ECEAED"/>
<rect x="124.173" y="-90.535" width="31" height="202" transform="rotate(13.8252 124.173 -90.535)" fill="#444547"/>
<rect x="156.545" y="-94" width="60" height="202" transform="rotate(13.8252 156.545 -94)" fill="#ECEAED"/>
<rect x="217.077" y="-90.535" width="31" height="202" transform="rotate(13.8252 217.077 -90.535)" fill="#444547"/>
<rect x="249.449" y="-93.8805" width="59" height="202" transform="rotate(13.8252 249.449 -93.8805)" fill="#ECEAED"/>
<rect x="309.01" y="-90.6545" width="32" height="202" transform="rotate(13.8252 309.01 -90.6545)" fill="#444547"/>
<rect x="342.353" y="-93.8805" width="59" height="202" transform="rotate(13.8252 342.353 -93.8805)" fill="#ECEAED"/>
<rect x="401.914" y="-90.6545" width="32" height="202" transform="rotate(13.8252 401.914 -90.6545)" fill="#444547"/>
<rect x="435.257" y="-93.8805" width="59" height="202" transform="rotate(13.8252 435.257 -93.8805)" fill="#ECEAED"/>
</g>
<defs>
<filter id="filter0_d_245_1891" x="0" y="0" width="448" height="41" filterUnits="userSpaceOnUse" color-interpolation-filters="sRGB">
<feFlood flood-opacity="0" result="BackgroundImageFix"/>
<feColorMatrix in="SourceAlpha" type="matrix" values="0 0 0 0 0 0 0 0 0 0 0 0 0 0 0 0 0 0 127 0" result="hardAlpha"/>
<feOffset dy="4"/>
<feGaussianBlur stdDeviation="2"/>
<feComposite in2="hardAlpha" operator="out"/>
<feColorMatrix type="matrix" values="0 0 0 0 0 0 0 0 0 0 0 0 0 0 0 0 0 0 0.25 0"/>
<feBlend mode="normal" in2="BackgroundImageFix" result="effect1_dropShadow_245_1891"/>
<feBlend mode="normal" in="SourceGraphic" in2="effect1_dropShadow_245_1891" result="shape"/>
</filter>
<clipPath id="clip0_245_1891">
<rect width="440" height="33" fill="white" transform="translate(4)"/>
</clipPath>
</defs>
</svg>
