<svg width="20" height="21" viewBox="0 0 20 21" fill="none" xmlns="http://www.w3.org/2000/svg">
<g clip-path="url(#clip0_380_4854)">
<path d="M15.5558 9.7196L6.65555 0.81951C6.4497 0.613495 6.1749 0.5 5.8819 0.5C5.58889 0.5 5.3141 0.613495 5.10824 0.81951L4.4528 1.47479C4.0263 1.90178 4.0263 2.59576 4.4528 3.02209L11.9266 10.4959L4.44451 17.9779C4.23866 18.1839 4.125 18.4586 4.125 18.7514C4.125 19.0446 4.23866 19.3192 4.44451 19.5254L5.09995 20.1805C5.30597 20.3865 5.5806 20.5 5.8736 20.5C6.16661 20.5 6.4414 20.3865 6.64726 20.1805L15.5558 11.2723C15.7621 11.0656 15.8755 10.7897 15.8748 10.4963C15.8755 10.2019 15.7621 9.9261 15.5558 9.7196Z" fill="white"/>
</g>
<defs>
<clipPath id="clip0_380_4854">
<rect width="20" height="20" fill="white" transform="translate(0 0.5)"/>
</clipPath>
</defs>
</svg>
