<svg width="32" height="32" viewBox="0 0 32 32" fill="none" xmlns="http://www.w3.org/2000/svg">
<path d="M17.8325 16.0001L25.6203 8.21214C26.1271 7.70556 26.1271 6.8865 25.6203 6.37992C25.1137 5.87334 24.2947 5.87334 23.7881 6.37992L16.0001 14.1679L8.21233 6.37992C7.70552 5.87334 6.88669 5.87334 6.38011 6.37992C5.8733 6.8865 5.8733 7.70556 6.38011 8.21214L14.1679 16.0001L6.38011 23.7881C5.8733 24.2947 5.8733 25.1138 6.38011 25.6204C6.63257 25.873 6.96451 26 7.29622 26C7.62793 26 7.95963 25.873 8.21233 25.6204L16.0001 17.8324L23.7881 25.6204C24.0408 25.873 24.3725 26 24.7042 26C25.0359 26 25.3676 25.873 25.6203 25.6204C26.1271 25.1138 26.1271 24.2947 25.6203 23.7881L17.8325 16.0001Z" fill="white"/>
</svg>
