<svg width="11" height="11" viewBox="0 0 11 11" fill="none" xmlns="http://www.w3.org/2000/svg">
<path d="M10.7425 8.85731L10.2875 7.49195L9.85027 6.17917L9.83305 6.12721L9.47541 5.94586L8.59565 5.49981H8.59623H8.59089L9.47007 5.05375L9.8277 4.87244L9.84493 4.82106L10.2827 3.50767L10.7372 2.14292L10.9047 1.64004L10.9944 1.36987H9.94174L9.92451 1.42064L9.47007 2.7848L9.09225 3.91929L9.02573 4.11934L9.01502 4.15017L7.42773 4.95523L7.96237 5.49981L7.96296 5.50043L7.42952 6.04319L7.47762 6.06674L7.75209 6.20638L8.25107 6.45901L9.02039 6.84885V6.84948L9.03048 6.8803L9.09759 7.08094L9.47483 8.21421L9.94649 9.63276L10.9998 9.62976L10.91 9.35958L10.7425 8.85731Z" fill="white"/>
<path d="M2.07657 2.21834L2.53102 3.5831L2.81022 3.72452L3.7114 4.18145L3.79811 4.2256L4.07316 4.36461L4.12959 4.39363L4.87335 3.63691L4.03513 3.21139L3.34367 2.86083L3.22071 2.49153L2.91002 1.55893L2.69438 0.910396L2.55715 0.5H1.50391L1.85677 1.55893L2.07657 2.21834Z" fill="white"/>
<path d="M8.46411 3.5831L8.82767 2.49153L8.91855 2.21834L9.13835 1.55893L9.49119 0.5H8.43796L8.30133 0.910396L8.08509 1.55893L7.77441 2.49153L7.65145 2.86083L6.96055 3.21139L6.12891 3.63328L6.87263 4.39L8.46411 3.5831Z" fill="white"/>
<path d="M2.5359 7.41684L2.17175 8.50781L2.08086 8.78102L1.86166 9.44041L1.50879 10.5H2.56204L2.69867 10.0889L2.9149 9.44041L3.22559 8.50781L3.34855 8.13851L4.03942 7.78795L4.87406 7.36488L4.13034 6.60815L2.5359 7.41684Z" fill="white"/>
<path d="M8.92409 8.78112L8.46965 7.41698L8.19042 7.27556L7.28868 6.818L7.20252 6.77451V6.77388L6.9275 6.63487L6.87461 6.60767L6.13086 7.36501L6.9655 7.78809L7.65699 8.13865L7.77994 8.50795L8.09062 9.44054L8.30628 10.0891L8.4435 10.5001H9.49676L9.14388 9.44054L8.92409 8.78112Z" fill="white"/>
<path d="M1.90749 7.08079V7.0802L1.97402 6.88015L1.98471 6.84932L3.57498 6.04304L3.04153 5.50028L3.04212 5.49965L3.57381 4.9587L3.5221 4.93272L3.24767 4.79371L2.74866 4.54045L1.97937 4.15061V4.15002L1.96927 4.11919L1.90214 3.91852L1.52492 2.78525L1.05265 1.3667L0 1.36972L0.0897013 1.63989L0.257223 2.14276L0.712265 3.50813L1.14948 4.82032L1.16671 4.87228L1.52433 5.0536L2.40411 5.49965L2.40352 5.50028H2.40887L1.52968 5.94571L1.17146 6.12702L1.15483 6.17843L0.717015 7.49179L0.262569 8.85716L0.0950477 9.35943L0.0047524 9.62961H1.058L1.07523 9.57883L1.52968 8.21469L1.90749 7.08079Z" fill="white"/>
<path d="M6.76068 5.70278L6.96029 5.5003L6.9597 5.49971L6.75831 5.29481L6.20289 4.72969L5.50309 4.01709L4.79975 4.73332L4.24371 5.29844L4.04648 5.49971L4.0459 5.5003L4.2455 5.70278L4.80092 6.2685L5.50309 6.98232L6.20468 6.2685L6.76068 5.70278Z" fill="white"/>
</svg>
