<svg width="12" height="19" viewBox="0 0 12 19" fill="none" xmlns="http://www.w3.org/2000/svg">
<path d="M7.24054 18.6661H4.28649C3.79307 18.6661 3.39169 18.2655 3.39169 17.7731V11.1231H1.66824C1.17482 11.1231 0.773438 10.7224 0.773438 10.23V7.38051C0.773438 6.88805 1.17482 6.48746 1.66824 6.48746H3.39169V5.06051C3.39169 3.64565 3.83684 2.44189 4.67886 1.5796C5.52468 0.713378 6.70673 0.255615 8.0972 0.255615L10.3501 0.259267C10.8427 0.26011 11.2434 0.660705 11.2434 1.15232V3.79805C11.2434 4.2905 10.8421 4.6911 10.3488 4.6911L8.83198 4.69166C8.36938 4.69166 8.25159 4.78422 8.22639 4.8126C8.18488 4.85965 8.13548 4.99267 8.13548 5.35997V6.48731H10.2348C10.3929 6.48731 10.546 6.52622 10.6776 6.59954C10.9615 6.75784 11.1379 7.05717 11.1379 7.38065L11.1368 10.2302C11.1368 10.7224 10.7354 11.123 10.242 11.123H8.13548V17.7731C8.13548 18.2655 7.73396 18.6661 7.24054 18.6661ZM4.47311 17.5868H7.05392V10.6399C7.05392 10.3111 7.32202 10.0437 7.65135 10.0437H10.0554L10.0564 7.56676H7.65121C7.32188 7.56676 7.05392 7.29932 7.05392 6.9705V5.35997C7.05392 4.93831 7.09685 4.45877 7.41575 4.09835C7.80109 3.66264 8.40837 3.61236 8.8317 3.61236L10.1619 3.61179V1.33829L8.09635 1.33492C5.86175 1.33492 4.47311 2.76257 4.47311 5.06051V6.9705C4.47311 7.29918 4.20514 7.56676 3.87582 7.56676H1.85485V10.0437H3.87582C4.20514 10.0437 4.47311 10.3111 4.47311 10.6399V17.5868Z" fill="white"/>
</svg>
