<svg width="14" height="14" viewBox="0 0 14 14" fill="none" xmlns="http://www.w3.org/2000/svg">
<path d="M6.30871 1.18687C6.6173 0.657058 7.3827 0.657057 7.69129 1.18687L9.40882 4.1357C9.52187 4.32978 9.71129 4.4674 9.9308 4.51494L13.266 5.23717C13.8653 5.36694 14.1018 6.09488 13.6933 6.55208L11.4195 9.09679C11.2699 9.26428 11.1975 9.48695 11.2202 9.71041L11.5639 13.1056C11.6257 13.7156 11.0065 14.1655 10.4454 13.9183L7.3226 12.5422C7.11707 12.4516 6.88293 12.4516 6.6774 12.5422L3.55461 13.9183C2.99354 14.1655 2.37431 13.7156 2.43608 13.1056L2.77984 9.71041C2.80246 9.48695 2.73011 9.26428 2.58046 9.09679L0.306709 6.55208C-0.101814 6.09488 0.134707 5.36694 0.733949 5.23717L4.0692 4.51494C4.28871 4.4674 4.47813 4.32978 4.59117 4.1357L6.30871 1.18687Z" fill="#F06F26"/>
</svg>
