<svg width="20" height="21" viewBox="0 0 20 21" fill="none" xmlns="http://www.w3.org/2000/svg">
<path d="M13.8983 1.99994H6.10176C3.56431 1.99994 1.5 4.06424 1.5 6.6017V14.3984C1.5 16.9357 3.56431 19 6.10176 19H13.8984C16.4357 19 18.5 16.9357 18.5 14.3984V6.6017C18.5 4.06424 16.4357 1.99994 13.8983 1.99994ZM17.5034 14.3984C17.5034 16.3861 15.8862 18.0034 13.8983 18.0034H6.10176C4.11384 18.0034 2.49661 16.3861 2.49661 14.3984V6.6017C2.49661 4.61378 4.11384 2.99655 6.10176 2.99655H13.8984C15.8862 2.99655 17.5034 4.61378 17.5034 6.6017V14.3984Z" fill="white"/>
<path d="M9.99988 5.85175C7.43675 5.85175 5.35156 7.93693 5.35156 10.5001C5.35156 13.0632 7.43675 15.1484 9.99988 15.1484C12.563 15.1484 14.6482 13.0632 14.6482 10.5001C14.6482 7.93693 12.563 5.85175 9.99988 5.85175ZM9.99988 14.1518C7.98642 14.1518 6.34818 12.5137 6.34818 10.5001C6.34818 8.4866 7.98642 6.84836 9.99988 6.84836C12.0135 6.84836 13.6516 8.4866 13.6516 10.5001C13.6516 12.5137 12.0135 14.1518 9.99988 14.1518Z" fill="white"/>
<path d="M14.7602 4.20093C14.0028 4.20093 13.3867 4.81713 13.3867 5.57445C13.3867 6.3319 14.0028 6.9481 14.7602 6.9481C15.5177 6.9481 16.1339 6.3319 16.1339 5.57445C16.1339 4.817 15.5177 4.20093 14.7602 4.20093ZM14.7602 5.95136C14.5525 5.95136 14.3833 5.78223 14.3833 5.57445C14.3833 5.36654 14.5525 5.19754 14.7602 5.19754C14.9682 5.19754 15.1373 5.36654 15.1373 5.57445C15.1373 5.78223 14.9682 5.95136 14.7602 5.95136Z" fill="white"/>
</svg>
