<svg width="16" height="16" viewBox="0 0 16 16" fill="none" xmlns="http://www.w3.org/2000/svg">
<path d="M12 0H4C1.76 0 0 1.76 0 4V12C0 14.24 1.76 16 4 16H12C14.24 16 16 14.24 16 12V4C16 1.76 14.24 0 12 0ZM14.4 12C14.4 13.36 13.36 14.4 12 14.4H4C2.64 14.4 1.6 13.36 1.6 12V4C1.6 2.64 2.64 1.6 4 1.6H12C13.36 1.6 14.4 2.64 14.4 4V12Z" fill="white"/>
<path d="M8 4C5.76 4 4 5.76 4 8C4 10.24 5.76 12 8 12C10.24 12 12 10.24 12 8C12 5.76 10.24 4 8 4ZM8 10.4C6.64 10.4 5.6 9.36 5.6 8C5.6 6.64 6.64 5.6 8 5.6C9.36 5.6 10.4 6.64 10.4 8C10.4 9.36 9.36 10.4 8 10.4Z" fill="white"/>
<path d="M11.9992 4.79995C12.441 4.79995 12.7992 4.44178 12.7992 3.99995C12.7992 3.55812 12.441 3.19995 11.9992 3.19995C11.5574 3.19995 11.1992 3.55812 11.1992 3.99995C11.1992 4.44178 11.5574 4.79995 11.9992 4.79995Z" fill="white"/>
</svg>
