<svg width="16" height="16" viewBox="0 0 16 16" fill="none" xmlns="http://www.w3.org/2000/svg">
<g clip-path="url(#clip0_462_380)">
<path d="M15.9968 16L16.0008 15.9993V10.1313C16.0008 7.26065 15.3828 5.04932 12.0268 5.04932C10.4135 5.04932 9.33082 5.93465 8.88882 6.77398H8.84216V5.31732H5.66016V15.9993H8.97349V10.71C8.97349 9.31732 9.23749 7.97065 10.9622 7.97065C12.6615 7.97065 12.6868 9.55998 12.6868 10.7993V16H15.9968Z" fill="white"/>
<path d="M0.265625 5.31787H3.58296V15.9999H0.265625V5.31787Z" fill="white"/>
<path d="M1.92133 0C0.860667 0 0 0.860667 0 1.92133C0 2.982 0.860667 3.86067 1.92133 3.86067C2.982 3.86067 3.84267 2.982 3.84267 1.92133C3.842 0.860667 2.98133 0 1.92133 0Z" fill="white"/>
</g>
<defs>
<clipPath id="clip0_462_380">
<rect width="16" height="16" fill="white"/>
</clipPath>
</defs>
</svg>
