<svg width="20" height="21" viewBox="0 0 20 21" fill="none" xmlns="http://www.w3.org/2000/svg">
<g clip-path="url(#clip0_380_4844)">
<path d="M5.21739 20.2961H0V6.81799H5.21739V20.2961ZM0.869512 19.4266H4.34788V7.68751H0.869512V19.4266Z" fill="white"/>
<path d="M20.0005 20.296H14.7831V12.9048C14.7831 12.1845 14.1991 11.6004 13.4788 11.6004C12.7583 11.6004 12.1744 12.1845 12.1744 12.9048V20.296H6.95703V6.81787H12.1744V7.6928C12.9619 7.12342 13.9091 6.81724 14.8809 6.81787C17.7015 6.81787 20.0005 9.10589 20.0005 11.9211V20.296ZM15.6526 19.4265H19.1308V11.9211C19.1249 9.57894 17.223 7.68436 14.8809 7.68738C13.8103 7.68738 12.8048 8.13846 12.0548 8.95368L11.3048 9.77431V7.68738H7.82654V19.4265H11.3048V12.9048C11.3048 11.7041 12.2781 10.7309 13.4788 10.7309C14.6793 10.7309 15.6526 11.7041 15.6526 12.9048V19.4265Z" fill="white"/>
<path d="M2.6087 5.94829C1.16789 5.94829 0 4.78039 0 3.33959C0 1.89895 1.16789 0.730896 2.6087 0.730896C4.0495 0.730896 5.21739 1.89895 5.21739 3.33959C5.21437 4.77912 4.04822 5.94542 2.6087 5.94829ZM2.6087 1.60057C1.64827 1.60057 0.869512 2.37916 0.869512 3.33959C0.869512 4.30018 1.64827 5.07877 2.6087 5.07877C3.56912 5.07877 4.34788 4.30018 4.34788 3.33959C4.34788 2.37916 3.56912 1.60057 2.6087 1.60057Z" fill="white"/>
</g>
<defs>
<clipPath id="clip0_380_4844">
<rect width="20" height="20" fill="white" transform="translate(0 0.5)"/>
</clipPath>
</defs>
</svg>
