<svg width="14" height="14" viewBox="0 0 14 14" fill="none" xmlns="http://www.w3.org/2000/svg">
<path d="M6.74077 1.43852C6.85649 1.23984 7.14351 1.23984 7.25923 1.43852L8.97677 4.38735L9.36252 4.16267L8.97677 4.38735C9.16046 4.70273 9.46827 4.92636 9.82498 5.00361L13.1602 5.72585C13.3849 5.77451 13.4736 6.04749 13.3204 6.21894L11.0467 8.76365C10.8035 9.03581 10.6859 9.39766 10.7227 9.76078L11.0665 13.156C11.0896 13.3847 10.8574 13.5534 10.647 13.4607L7.52422 12.0846C7.19024 11.9374 6.80976 11.9374 6.47578 12.0846L3.35298 13.4607C3.14258 13.5534 2.91037 13.3847 2.93353 13.156L3.2773 9.76078C3.31406 9.39766 3.19649 9.03581 2.95331 8.76365L0.679555 6.21894C0.526358 6.04748 0.615055 5.77451 0.83977 5.72585L4.17502 5.00361C4.53173 4.92637 4.83954 4.70273 5.02323 4.38735L6.74077 1.43852Z" stroke="#F06F26"/>
</svg>
