<svg width="32" height="33" viewBox="0 0 32 33" fill="none" xmlns="http://www.w3.org/2000/svg">
<g clip-path="url(#clip0_380_5628)">
<path d="M31.9895 16.5022C31.9895 7.6709 24.8301 0.511475 15.9985 0.511475C7.16724 0.511475 0.0078125 7.6709 0.0078125 16.5022C0.0078125 25.334 7.16724 32.4932 15.9985 32.4932H31.9895V29.8279H24.8269C29.2979 26.8682 31.9875 21.8643 31.9895 16.5022ZM2.6731 16.5022C2.6731 9.14282 8.63916 3.17676 15.9985 3.17676C23.3582 3.17676 29.3245 9.14282 29.3245 16.5022C29.3245 23.8618 23.3582 29.8279 15.9985 29.8279C8.64258 29.8198 2.6814 23.8584 2.6731 16.5022Z" fill="#F02626"/>
<path d="M17.3293 16.5022C17.3293 17.2383 16.7324 17.8347 15.9966 17.8347C15.2607 17.8347 14.6641 17.2383 14.6641 16.5022C14.6641 15.7664 15.2607 15.1699 15.9966 15.1699C16.7324 15.1699 17.3293 15.7664 17.3293 16.5022Z" fill="#F02626"/>
<path d="M15.9976 12.5046C18.2056 12.5046 19.9954 10.7148 19.9954 8.50684C19.9954 6.29907 18.2056 4.50928 15.9976 4.50928C13.7898 4.50928 12 6.29907 12 8.50684C12.0024 10.7139 13.7908 12.5022 15.9976 12.5046ZM15.9976 7.17432C16.7334 7.17432 17.3303 7.771 17.3303 8.50684C17.3303 9.24292 16.7334 9.83936 15.9976 9.83936C15.2617 9.83936 14.665 9.24292 14.665 8.50684C14.6658 7.77124 15.262 7.17505 15.9976 7.17432Z" fill="#F02626"/>
<path d="M12.1961 15.2668C12.7306 13.6206 12.1441 11.8176 10.744 10.8C9.3436 9.78268 7.4476 9.78244 6.04721 10.7995C4.64633 11.8164 4.05966 13.6194 4.5936 15.2656C5.12729 16.9123 6.66025 18.028 8.39121 18.0295C10.1239 18.0295 11.6595 16.9145 12.1961 15.2668ZM7.98203 15.2988C7.28208 15.0715 6.89926 14.3198 7.12656 13.6196C7.3541 12.9199 8.10556 12.5368 8.80551 12.7641C9.50547 12.9917 9.88877 13.7431 9.66123 14.4431C9.4332 15.1425 8.68198 15.5251 7.98227 15.2988H7.98203Z" fill="#F02626"/>
<path d="M13.6478 19.7366C12.1046 18.6158 9.98476 18.741 8.58461 20.0359C7.18422 21.3306 6.8937 23.4344 7.89003 25.0604C8.88686 26.6863 10.8932 27.3821 12.6825 26.7215C14.4718 26.0613 15.5453 24.2291 15.247 22.3455C15.0836 21.2972 14.508 20.3577 13.6478 19.7366ZM12.3761 23.7537C12.0026 24.2681 11.3173 24.4468 10.7401 24.1805C10.1627 23.9144 9.8539 23.2776 10.0023 22.6592C10.151 22.0411 10.7155 21.6138 11.3507 21.639C11.986 21.6639 12.5148 22.1343 12.6144 22.7623C12.6693 23.1114 12.5836 23.4681 12.3761 23.754V23.7537Z" fill="#F02626"/>
<path d="M23.931 20.6211C22.6334 18.8367 20.1349 18.4417 18.3502 19.7388C16.5653 21.0359 16.1696 23.5342 17.4662 25.3194C18.7628 27.1045 21.2611 27.5013 23.0467 26.2051C23.9103 25.5862 24.4899 24.6473 24.6561 23.598C24.8221 22.5486 24.5612 21.4766 23.931 20.6211ZM21.4801 24.0481C20.8849 24.4808 20.0514 24.3487 19.6188 23.7532C19.1862 23.1578 19.318 22.3245 19.9137 21.8919C20.5091 21.4593 21.3424 21.5911 21.775 22.1868C22.2069 22.7825 22.0748 23.6153 21.4801 24.0481Z" fill="#F02626"/>
<path d="M27.1652 15.8464C27.8991 14.4057 27.693 12.665 26.643 11.4353C25.5929 10.2058 23.9057 9.72994 22.3678 10.2295C20.6469 10.7888 19.5163 12.4338 19.611 14.2409C19.7055 16.0478 21.0019 17.5659 22.7719 17.9419C24.5417 18.3181 26.3437 17.4587 27.1652 15.8464ZM24.7904 14.6367C24.4516 15.2871 23.6545 15.5466 22.998 15.2199C22.518 14.9751 22.2326 14.465 22.2746 13.9279C22.3168 13.3906 22.6786 12.9316 23.1911 12.7651C23.7038 12.5986 24.2663 12.757 24.6161 13.167C24.9662 13.5769 25.0351 14.1572 24.7902 14.6374L24.7904 14.6367Z" fill="#F02626"/>
</g>
<defs>
<clipPath id="clip0_380_5628">
<rect width="32" height="32" fill="white" transform="translate(0 0.5)"/>
</clipPath>
</defs>
</svg>
