<svg width="32" height="21" viewBox="0 0 32 21" fill="none" xmlns="http://www.w3.org/2000/svg">
<path d="M0 1.16293C0 0.550962 0.544745 0.0825371 1.14981 0.174213L30.2748 4.58709C30.7637 4.66116 31.125 5.08137 31.125 5.57581V15.1742C31.125 15.6686 30.7637 16.0888 30.2748 16.1629L1.14981 20.5758C0.544745 20.6675 0 20.199 0 19.5871V1.16293Z" fill="#F02626"/>
<path opacity="0.4" d="M31.125 5.57152C31.125 4.98683 30.6256 4.52686 30.0429 4.5749L10.9877 6.14558C10.469 6.18833 10.0699 6.62176 10.0699 7.1422V13.6195C10.0699 14.14 10.469 14.5734 10.9877 14.6161L30.0429 16.1868C30.6256 16.2349 31.125 15.7749 31.125 15.1902V5.57152Z" fill="white"/>
</svg>
