<svg width="18" height="19" viewBox="0 0 18 19" fill="none" xmlns="http://www.w3.org/2000/svg">
<path d="M8.13589 3.48359C8.52162 2.82132 9.47838 2.82132 9.86411 3.48359L11.3645 6.05954C11.5058 6.30214 11.7425 6.47417 12.0169 6.53359L14.9304 7.1645C15.6795 7.3267 15.9752 8.23663 15.4645 8.80814L13.4783 11.0311C13.2912 11.2404 13.2008 11.5188 13.229 11.7981L13.5293 14.764C13.6065 15.5265 12.8325 16.0889 12.1312 15.7798L9.40325 14.5777C9.14634 14.4645 8.85366 14.4645 8.59675 14.5777L5.86883 15.7798C5.16749 16.0889 4.39346 15.5265 4.47067 14.764L4.77096 11.7981C4.79924 11.5188 4.7088 11.2404 4.52174 11.0311L2.5355 8.80814C2.02484 8.23663 2.3205 7.3267 3.06955 7.1645L5.98306 6.53359C6.25745 6.47417 6.49423 6.30214 6.63553 6.05954L8.13589 3.48359Z" fill="#F06F26"/>
</svg>
