<svg width="36" height="35" viewBox="0 0 36 35" fill="none" xmlns="http://www.w3.org/2000/svg">
<path opacity="0.2" d="M16.5598 1.47265C17.2027 0.368869 18.7973 0.368869 19.4402 1.47265L24.096 9.46617C24.3315 9.87051 24.7261 10.1572 25.1834 10.2563L34.2245 12.2141C35.4729 12.4844 35.9656 14.0009 35.1145 14.9534L28.951 21.8515C28.6392 22.2004 28.4885 22.6644 28.5356 23.1299L29.4675 32.3334C29.5961 33.6043 28.3061 34.5415 27.1372 34.0264L18.6721 30.2962C18.2439 30.1075 17.7561 30.1075 17.3279 30.2962L8.86282 34.0264C7.69392 34.5415 6.40387 33.6043 6.53255 32.3334L7.46439 23.1299C7.51153 22.6644 7.3608 22.2004 7.04902 21.8515L0.885455 14.9534C0.0343645 14.0009 0.527119 12.4844 1.77554 12.2141L10.8166 10.2563C11.2739 10.1572 11.6685 9.87051 11.904 9.46617L16.5598 1.47265Z" fill="white"/>
</svg>
