<svg width="16" height="16" viewBox="0 0 16 16" fill="none" xmlns="http://www.w3.org/2000/svg">
<g clip-path="url(#clip0_462_386)">
<path d="M7.99943 13.8123C7.99809 13.8123 7.99663 13.8123 7.99516 13.8123C7.51237 13.809 3.2443 13.77 2.03507 13.443C1.18997 13.2158 0.522859 12.5495 0.295075 11.7042C-0.0213319 10.5164 -0.00119027 8.22938 0.001007 8.04676C-0.0010682 7.865 -0.021454 5.55909 0.294098 4.36145C0.294465 4.36036 0.294709 4.35913 0.295075 4.35804C0.520295 3.52246 1.20243 2.83545 2.03299 2.60767C2.03507 2.60706 2.03727 2.60657 2.03934 2.60596C3.2349 2.29175 7.5114 2.2533 7.99516 2.25H8.00383C8.48784 2.2533 12.7673 2.29224 13.9654 2.61975C14.8083 2.84631 15.4749 3.51184 15.7033 4.35596C16.0316 5.55445 16.0012 7.86537 15.9979 8.06044C16.0002 8.25257 16.0193 10.5191 15.7048 11.7129C15.7045 11.7141 15.7042 11.7152 15.7039 11.7163C15.476 12.5615 14.809 13.2279 13.9629 13.4553C13.9618 13.4557 13.9606 13.456 13.9595 13.4563C12.7641 13.7704 8.48747 13.8089 8.00383 13.8123C8.00236 13.8123 8.0009 13.8123 7.99943 13.8123ZM1.50235 4.68201C1.22452 5.73914 1.25077 8.01564 1.25101 8.03858V8.05506C1.24271 8.68641 1.27188 10.5148 1.50247 11.3808C1.61429 11.7954 1.94327 12.1239 2.36051 12.2361C3.25272 12.4774 6.72892 12.5534 7.99943 12.5623C9.27324 12.5534 12.7546 12.4795 13.6402 12.2478C14.0561 12.1353 14.384 11.8079 14.4965 11.3927C14.7274 10.5141 14.7563 8.69459 14.7479 8.06727C14.7479 8.06068 14.7479 8.05409 14.748 8.0475C14.7595 7.40858 14.7369 5.55884 14.4976 4.68592C14.4974 4.68506 14.4971 4.68421 14.497 4.68335C14.3847 4.26685 14.0556 3.93836 13.6384 3.82617C12.7548 3.5846 9.273 3.50891 7.99943 3.5C6.72648 3.50891 3.24857 3.58264 2.36026 3.81409C1.95096 3.92762 1.61454 4.26783 1.50235 4.68201ZM6.40629 10.5623V5.49988L10.7813 8.03114L6.40629 10.5623Z" fill="white"/>
</g>
<defs>
<clipPath id="clip0_462_386">
<rect width="16" height="16" fill="white"/>
</clipPath>
</defs>
</svg>
